<svg width="13" height="8" viewBox="0 0 13 8" fill="none" xmlns="http://www.w3.org/2000/svg">
<path d="M12.7431 7.72286C12.5718 7.90762 12.369 8 12.1347 8C11.9004 8 11.6978 7.90762 11.527 7.72286L6.50856 2.30948L1.47299 7.74134C1.31313 7.91378 1.11331 8 0.873518 8C0.633729 8 0.428195 7.90762 0.256917 7.72286C0.085639 7.53811 0 7.31935 0 7.06661C0 6.81386 0.085639 6.59535 0.256917 6.41109L6.02899 0.203244C6.0975 0.129341 6.17172 0.0768704 6.25165 0.0458312C6.33158 0.014792 6.41722 -0.000481242 6.50856 1.14441e-05C6.59991 1.14441e-05 6.68555 0.0155306 6.76548 0.0465698C6.84541 0.077609 6.91963 0.129834 6.98814 0.203244L12.7602 6.42956C12.9201 6.602 13 6.8146 13 7.06735C13 7.32009 12.9144 7.5386 12.7431 7.72286Z" fill="white"/>
</svg>
