<svg width="8" height="13" viewBox="0 0 8 13" fill="none" xmlns="http://www.w3.org/2000/svg">
<path d="M7.72286 0.256917C7.90762 0.428195 8 0.630989 8 0.865297C8 1.09961 7.90762 1.30217 7.72286 1.47299L2.30948 6.49144L7.74134 11.527C7.91378 11.6869 8 11.8867 8 12.1265C8 12.3663 7.90762 12.5718 7.72286 12.7431C7.53811 12.9144 7.31935 13 7.06661 13C6.81386 13 6.59535 12.9144 6.41109 12.7431L0.203244 6.97101C0.129341 6.9025 0.0768704 6.82828 0.0458312 6.74835C0.014792 6.66842 -0.000481242 6.58278 1.14441e-05 6.49144C1.14441e-05 6.40009 0.0155306 6.31445 0.0465698 6.23452C0.077609 6.15459 0.129834 6.08037 0.203244 6.01186L6.42956 0.23979C6.602 0.0799305 6.8146 3.57628e-07 7.06735 3.57628e-07C7.32009 3.57628e-07 7.5386 0.0856395 7.72286 0.256917Z" fill="white"/>
</svg>
