<svg width="13" height="8" viewBox="0 0 13 8" fill="none" xmlns="http://www.w3.org/2000/svg">
<path d="M0.256917 0.277136C0.428195 0.0923786 0.630989 0 0.865297 0C1.09961 0 1.30217 0.0923786 1.47299 0.277136L6.49144 5.69052L11.527 0.25866C11.6869 0.08622 11.8867 0 12.1265 0C12.3663 0 12.5718 0.0923786 12.7431 0.277136C12.9144 0.461893 13 0.680646 13 0.933394C13 1.18614 12.9144 1.40465 12.7431 1.58891L6.97101 7.79676C6.9025 7.87066 6.82828 7.92313 6.74835 7.95417C6.66842 7.98521 6.58278 8.00048 6.49144 7.99999C6.40009 7.99999 6.31445 7.98447 6.23452 7.95343C6.15459 7.92239 6.08037 7.87017 6.01186 7.79676L0.23979 1.57044C0.0799305 1.398 3.57628e-07 1.1854 3.57628e-07 0.932654C3.57628e-07 0.679906 0.0856395 0.4614 0.256917 0.277136Z" fill="white"/>
</svg>
