<svg width="8" height="13" viewBox="0 0 8 13" fill="none" xmlns="http://www.w3.org/2000/svg">
<path d="M0.277136 12.7431C0.0923786 12.5718 0 12.369 0 12.1347C0 11.9004 0.0923786 11.6978 0.277136 11.527L5.69052 6.50856L0.25866 1.47299C0.08622 1.31313 0 1.11331 0 0.873518C0 0.633729 0.0923786 0.428195 0.277136 0.256917C0.461893 0.085639 0.680646 0 0.933394 0C1.18614 0 1.40465 0.085639 1.58891 0.256917L7.79676 6.02899C7.87066 6.0975 7.92313 6.17172 7.95417 6.25165C7.98521 6.33158 8.00048 6.41722 7.99999 6.50856C7.99999 6.59991 7.98447 6.68555 7.95343 6.76548C7.92239 6.84541 7.87017 6.91963 7.79676 6.98814L1.57044 12.7602C1.398 12.9201 1.1854 13 0.932654 13C0.679906 13 0.4614 12.9144 0.277136 12.7431Z" fill="white"/>
</svg>
