<svg width="30" height="25" viewBox="0 0 30 25" fill="none" xmlns="http://www.w3.org/2000/svg">
<path d="M3 24.5C2.175 24.5 1.4685 24.206 0.880502 23.618C0.292502 23.03 -0.000997453 22.324 2.54669e-06 21.5V3.5C2.54669e-06 2.675 0.294003 1.9685 0.882002 1.3805C1.47 0.792502 2.176 0.499003 3 0.500003H27C27.825 0.500003 28.5315 0.794002 29.1195 1.382C29.7075 1.97 30.001 2.676 30 3.5V21.5C30 22.325 29.706 23.0315 29.118 23.6195C28.53 24.2075 27.824 24.501 27 24.5H3ZM15 14L3 6.5V21.5H27V6.5L15 14ZM15 11L27 3.5H3L15 11ZM3 6.5V3.5V21.5V6.5Z" fill="#0B0A0A"/>
</svg>
