<svg width="28" height="28" viewBox="0 0 28 28" fill="none" xmlns="http://www.w3.org/2000/svg">
<path d="M8.12 0.5H19.88C24.36 0.5 28 4.01 28 8.33V19.67C28 21.7466 27.1445 23.7382 25.6217 25.2066C24.0989 26.6751 22.0336 27.5 19.88 27.5H8.12C3.64 27.5 0 23.99 0 19.67V8.33C0 6.25336 0.855498 4.26176 2.37829 2.79335C3.90109 1.32494 5.96644 0.5 8.12 0.5ZM7.84 3.2C6.50331 3.2 5.22137 3.71203 4.27618 4.62346C3.331 5.53489 2.8 6.77105 2.8 8.06V19.94C2.8 22.6265 5.054 24.8 7.84 24.8H20.16C21.4967 24.8 22.7786 24.288 23.7238 23.3765C24.669 22.4651 25.2 21.229 25.2 19.94V8.06C25.2 5.3735 22.946 3.2 20.16 3.2H7.84ZM21.35 5.225C21.8141 5.225 22.2592 5.40279 22.5874 5.71926C22.9156 6.03573 23.1 6.46495 23.1 6.9125C23.1 7.36005 22.9156 7.78928 22.5874 8.10574C22.2592 8.42221 21.8141 8.6 21.35 8.6C20.8859 8.6 20.4408 8.42221 20.1126 8.10574C19.7844 7.78928 19.6 7.36005 19.6 6.9125C19.6 6.46495 19.7844 6.03573 20.1126 5.71926C20.4408 5.40279 20.8859 5.225 21.35 5.225ZM14 7.25C15.8565 7.25 17.637 7.96116 18.9497 9.22703C20.2625 10.4929 21 12.2098 21 14C21 15.7902 20.2625 17.5071 18.9497 18.773C17.637 20.0388 15.8565 20.75 14 20.75C12.1435 20.75 10.363 20.0388 9.05025 18.773C7.7375 17.5071 7 15.7902 7 14C7 12.2098 7.7375 10.4929 9.05025 9.22703C10.363 7.96116 12.1435 7.25 14 7.25ZM14 9.95C12.8861 9.95 11.8178 10.3767 11.0302 11.1362C10.2425 11.8957 9.8 12.9259 9.8 14C9.8 15.0741 10.2425 16.1043 11.0302 16.8638C11.8178 17.6233 12.8861 18.05 14 18.05C15.1139 18.05 16.1822 17.6233 16.9698 16.8638C17.7575 16.1043 18.2 15.0741 18.2 14C18.2 12.9259 17.7575 11.8957 16.9698 11.1362C16.1822 10.3767 15.1139 9.95 14 9.95Z" fill="#0B0A0A"/>
</svg>
