<svg width="21" height="25" viewBox="0 0 21 25" fill="none" xmlns="http://www.w3.org/2000/svg">
<path d="M10.5 12.7344C11.1875 12.7344 11.7762 12.4894 12.2663 11.9994C12.7563 11.5094 13.0008 10.921 13 10.2344C13 9.54688 12.755 8.95813 12.265 8.46812C11.775 7.97813 11.1867 7.73354 10.5 7.73438C9.8125 7.73438 9.22375 7.97938 8.73375 8.46938C8.24375 8.95938 7.99917 9.54771 8 10.2344C8 10.9219 8.245 11.5106 8.735 12.0006C9.225 12.4906 9.81333 12.7352 10.5 12.7344ZM10.5 21.9219C13.0417 19.5885 14.9271 17.4685 16.1562 15.5619C17.3854 13.6552 18 11.9627 18 10.4844C18 8.21354 17.2758 6.35437 15.8275 4.90687C14.3792 3.45937 12.6033 2.73521 10.5 2.73438C8.39583 2.73438 6.61958 3.45854 5.17125 4.90687C3.72292 6.35521 2.99917 8.21437 3 10.4844C3 11.9635 3.61458 13.6565 4.84375 15.5631C6.07292 17.4698 7.95833 19.5894 10.5 21.9219ZM10.5 24.7656C10.3333 24.7656 10.1667 24.7344 10 24.6719C9.83333 24.6094 9.6875 24.526 9.5625 24.4219C6.52083 21.7344 4.25 19.2394 2.75 16.9369C1.25 14.6344 0.5 12.4835 0.5 10.4844C0.5 7.35938 1.50542 4.86979 3.51625 3.01562C5.52708 1.16146 7.855 0.234375 10.5 0.234375C13.1458 0.234375 15.4742 1.16146 17.485 3.01562C19.4958 4.86979 20.5008 7.35938 20.5 10.4844C20.5 12.4844 19.75 14.6356 18.25 16.9381C16.75 19.2406 14.4792 21.7352 11.4375 24.4219C11.3125 24.526 11.1667 24.6094 11 24.6719C10.8333 24.7344 10.6667 24.7656 10.5 24.7656Z" fill="#0B0A0A"/>
</svg>
