<svg width="37" height="38" viewBox="0 0 37 38" fill="none" xmlns="http://www.w3.org/2000/svg">
<path d="M25.9271 27.9063C25.5451 27.4549 25.3542 26.9431 25.3542 26.3708C25.3542 25.7986 25.5451 25.3208 25.9271 24.9375L29.7813 21.0833H14.8333C14.2431 21.0833 13.7479 20.8833 13.3479 20.4833C12.9479 20.0833 12.7486 19.5889 12.75 19C12.75 18.4097 12.95 17.9146 13.35 17.5146C13.75 17.1146 14.2444 16.9153 14.8333 16.9167H29.7813L25.9271 13.0625C25.5104 12.6458 25.3021 12.1507 25.3021 11.5771C25.3021 11.0035 25.5104 10.509 25.9271 10.0938C26.309 9.67709 26.7868 9.46875 27.3604 9.46875C27.934 9.46875 28.4111 9.65973 28.7917 10.0417L36.2917 17.5417C36.5 17.75 36.6479 17.9757 36.7354 18.2188C36.8229 18.4618 36.866 18.7222 36.8646 19C36.8646 19.2778 36.8215 19.5382 36.7354 19.7813C36.6493 20.0243 36.5014 20.25 36.2917 20.4583L28.7917 27.9583C28.3403 28.4097 27.8451 28.6097 27.3063 28.5583C26.7674 28.5069 26.3076 28.2896 25.9271 27.9063ZM4.41667 37.75C3.27084 37.75 2.28959 37.3417 1.47292 36.525C0.656253 35.7083 0.248615 34.7278 0.250004 33.5833V4.41667C0.250004 3.27084 0.658337 2.28959 1.475 1.47292C2.29167 0.656253 3.27223 0.248615 4.41667 0.250004H16.9167C17.5069 0.250004 18.0021 0.450004 18.4021 0.850004C18.8021 1.25 19.0014 1.74445 19 2.33334C19 2.92361 18.8 3.41875 18.4 3.81875C18 4.21875 17.5056 4.41806 16.9167 4.41667H4.41667V33.5833H16.9167C17.5069 33.5833 18.0021 33.7833 18.4021 34.1833C18.8021 34.5833 19.0014 35.0778 19 35.6667C19 36.2569 18.8 36.7521 18.4 37.1521C18 37.5521 17.5056 37.7514 16.9167 37.75H4.41667Z" fill="#0B0A0A"/>
</svg>
